# xmcd
#
# Track frame offsets:
#	150
#	17739
#	35412
#
# Disc length: 762 seconds
#
# Revision: 0
# Processed by: cddbd v1.5.1PL2 Copyright (c) Steve Scherf et al.
# Submitted via: dBpowerAMP V4.0
#
DISCID=1a02f803
DTITLE=Be Good Tanyas - The Littlest Birds (Single)
DYEAR=1900
DGENRE=Country
TTITLE0=The Littlest Birds - Video Version
TTITLE1=Rain and Snow - Live
TTITLE2=Momsong - Live
EXTD=
EXTT0=
EXTT1=
EXTT2=
PLAYORDER=
